<?xml version="1.0" encoding="UTF-8"?>
<svg width="73px" height="53px" viewBox="0 0 73 53" version="1.1" xmlns="http://www.w3.org/2000/svg" xmlns:xlink="http://www.w3.org/1999/xlink">
    <title>编组 50</title>
    <g id="页面-1" stroke="none" stroke-width="1" fill="none" fill-rule="evenodd">
        <g id="首页弹框2" transform="translate(-1169.000000, -5086.000000)">
            <g id="编组-50" transform="translate(1169.000000, 5086.000000)">
                <path d="M25.92,1.42108547e-13 C38.9499887,1.42108547e-13 49.7593814,9.63384003 51.5725023,22.1835585 C45.4974774,24.5850827 41.2,30.5106766 41.2,37.44 C41.2,40.2719337 41.9177911,42.9362182 43.1813645,45.2608448 C38.5993249,49.3533281 32.5516993,51.84 25.92,51.84 C11.5979294,51.84 -2.7000624e-13,40.2420706 -2.7000624e-13,25.92 C-2.7000624e-13,11.5979294 11.5979294,1.42108547e-13 25.92,1.42108547e-13 Z M14.1645176,10.8660706 C13.5851294,10.7085176 13.5088941,11.2828235 13.5088941,11.2828235 C13.3259294,13.5648 14.7693176,17.28 15.5011765,18.1185882 C16.2330353,18.9571765 27.3888,22.3521882 27.3888,22.3521882 C27.3888,22.3521882 24.8984471,21.8511705 22.280686,21.2950635 L21.7186482,21.175217 C19.6570074,20.7338798 17.6209086,20.2781973 16.7565176,20.0244706 C14.8172824,19.4622353 15.2723118,20.5304228 15.3367656,20.6661425 L15.3436235,20.6800941 C15.7603765,22.9824 17.7526588,25.6303059 19.3231059,25.8640941 C20.1265904,25.9993083 22.2524653,26.0374054 24.1372642,26.0423669 L25.1320308,26.0421715 C26.4807878,26.0383289 27.5158588,26.0216471 27.5158588,26.0216471 C27.5158588,26.0216471 26.1792,26.1792 24.0344471,26.4688941 C22.4385882,26.6772706 20.4208941,26.9161412 19.8974118,27.1245176 C18.6674824,27.5666824 20.7868235,29.4522353 20.7868235,29.4522353 C23.7085855,32.1092421 25.3637449,31.4546109 25.5804757,31.350334 L25.6021756,31.3393029 L25.6021756,31.3393029 C26.8348235,30.9210353 27.8817882,30.6313412 28.7712,30.4229647 L28.7712,30.4229647 L27.6734118,35.0072471 L30.8143059,35.0072471 L29.0863059,41.9192471 L36.7301647,31.7596235 L32.7252706,31.7596235 L33.5638588,30.3213176 L33.5892706,30.3467294 C33.5892706,30.3467294 34.6741167,28.5996792 35.7610959,26.7163857 L36.0114824,26.2800941 C36.5935059,25.2598588 37.152,24.2360471 37.5179294,23.4601412 L37.5179294,23.4601412 L37.5433412,23.4347294 C37.7263059,23.0128941 37.8584471,22.6977882 37.9092706,22.464 C38.5648941,19.8211765 33.6705882,18.7742118 28.0139294,16.6802824 C26.8149107,16.2448663 25.497938,15.7309682 24.1677436,15.191815 L23.5532503,14.9413757 C23.4508054,14.8994015 23.3483776,14.8573263 23.2460146,14.8151744 L22.6329952,14.5615357 C18.2507267,12.7399687 14.1645176,10.8660706 14.1645176,10.8660706 Z" id="形状结合" fill="#3296FA" fill-rule="nonzero"></path>
                <g id="编组-7" transform="translate(43.200000, 23.040000)">
                    <path d="M28.8,14.4 C28.8,6.4470996 22.3529004,-1.31113329e-12 14.4,-1.30967237e-12 C6.4470996,-1.30821145e-12 -9.73949402e-16,6.4470996 0,14.4 C9.73949402e-16,22.3529004 6.4470996,28.8 14.4,28.8 C22.3529004,28.8 28.8,22.3529004 28.8,14.4 Z" id="Fill-1" fill="#067BEF"></path>
                    <path d="M9.05003535,6.64615385 C12.9162408,6.64615385 15.1927966,9.6103347 15.1927966,13.4301485 C15.1927966,17.9264156 12.5040972,20.4923077 8.85339813,20.4923077 C5.12424283,20.4923077 2.76923077,17.6079859 2.76923077,13.6687191 C2.76923077,9.55094371 5.320549,6.64615385 9.05003535,6.64615385 Z M22.0817862,10.3664458 C23.7498922,10.3664458 25.4769231,11.4606493 25.4769231,14.5244862 L25.4769231,20.2740039 L23.0629861,20.2740039 L23.0629861,14.8033219 C23.0629861,13.4104857 22.5528548,12.3565473 21.2379676,12.3565473 C20.276299,12.3565473 19.6089242,13.052462 19.3536931,13.7883064 C19.2752368,14.0074155 19.2560366,14.3057126 19.2560366,14.5842127 L19.2560366,20.2740039 L16.8215751,20.2740039 L16.8212691,13.2338708 L16.8212691,13.2338708 L16.8186924,12.777591 L16.8186924,12.777591 L16.8132117,12.3411326 C16.8120373,12.2699644 16.8107276,12.1995643 16.8092755,12.1299036 L16.7987981,11.7205801 C16.7864985,11.3196667 16.7685616,10.943291 16.7434499,10.5852194 L18.8627621,10.5852194 L18.9806121,12.0374465 L19.039537,12.0374465 C19.4516807,11.2818052 20.4918055,10.3664458 22.0817862,10.3664458 Z M8.99077935,8.61578727 C6.5960426,8.61545172 5.32021797,10.8639208 5.32021797,13.6291251 C5.32021797,16.3547353 6.67482991,18.5233454 8.99077935,18.5233454 C11.3262601,18.5233454 12.6411474,16.3349383 12.6411474,13.529469 C12.6411474,11.0031709 11.4050474,8.61578727 8.99077935,8.61578727 Z" id="形状" fill="#FFFFFF"></path>
                </g>
            </g>
        </g>
    </g>
</svg>