<?xml version="1.0" encoding="UTF-8"?>
<svg width="72px" height="52px" viewBox="0 0 72 52" version="1.1" xmlns="http://www.w3.org/2000/svg" xmlns:xlink="http://www.w3.org/1999/xlink">
    <title>编组 6</title>
    <g id="页面-1" stroke="none" stroke-width="1" fill="none" fill-rule="evenodd">
        <g id="首页弹框2" transform="translate(-1297.000000, -5086.000000)">
            <g id="编组-6" transform="translate(1297.000000, 5086.000000)">
                <path d="M25.92,1.42108547e-13 C38.9296487,1.42108547e-13 49.6983385,9.58072848 51.5565226,22.0726385 C45.3841502,24.4262712 41,30.401149 41,37.4 C41,40.2906034 41.7478405,43.0065393 43.0605988,45.3648851 C38.4929547,49.3947557 32.4924521,51.84 25.92,51.84 C11.6030118,51.84 1.42108547e-13,40.2369882 1.42108547e-13,25.92 C1.42108547e-13,11.6030118 11.6030118,1.42108547e-13 25.92,1.42108547e-13 Z M51.84,25.92 C51.84,32.917428 49.0683124,39.2665506 44.5627404,43.9295648 C43.5632432,41.969784 43,39.7506682 43,37.4 C43,31.4411382 46.6194278,26.3276391 51.7797623,24.1380237 C51.8197028,24.7271417 51.84,25.3211971 51.84,25.92 Z" id="形状结合" fill="#F3F5F7" fill-rule="nonzero"></path>
                <g id="编组-48" transform="translate(7.200000, 12.240000)">
                    <polygon id="路径-6备份-2" fill="#47EBD5" transform="translate(15.830934, 8.039762) rotate(-360.000000) translate(-15.830934, -8.039762) " points="7.13582448 16.0795231 -8.12526517e-14 8.75533898 31.6618675 -2.04824393e-13"></polygon>
                    <polygon id="路径-6备份-3" fill="#3370FF" transform="translate(24.022366, 16.231193) scale(-1, 1) rotate(-90.000000) translate(-24.022366, -16.231193) " points="15.3927594 24.3364579 8.25693488 17.0122739 39.7877963 8.12592887"></polygon>
                    <path d="M31.6618675,4.18052931e-12 L23.8952834,7.46957653 C23.2756369,7.17423677 22.5114256,7.28310211 21.9983551,7.79617255 C21.3470984,8.44742923 21.3470984,9.50332495 21.9983551,10.1545816 L21.9588245,10.111 L16.0181334,16.0178397 L7.13582448,16.0795231 L31.6618675,4.18052931e-12 Z" id="形状结合" fill="#02D5BC"></path>
                    <path d="M32.1276301,0.465762669 L15.9174438,24.8611424 L16.0181334,16.0178397 L21.9634438,10.1157627 L21.9983551,10.1545816 C22.6113026,10.7675291 23.5826846,10.8035848 24.2378009,10.2627488 L24.3567642,10.1545816 C24.8789641,9.6323818 24.9824462,8.85002416 24.6672108,8.22471553 L24.6672108,8.22471553 L32.1276301,0.465762669 Z" id="形状结合" fill="#005DE0"></path>
                </g>
                <g id="编组-7备份-2" transform="translate(43.000000, 23.000000)">
                    <path d="M28.8,14.4 C28.8,6.4470996 22.3529004,-1.31113329e-12 14.4,-1.30967237e-12 C6.4470996,-1.30821145e-12 -9.73949402e-16,6.4470996 0,14.4 C9.73949402e-16,22.3529004 6.4470996,28.8 14.4,28.8 C22.3529004,28.8 28.8,22.3529004 28.8,14.4 Z" id="Fill-1" fill="#067BEF"></path>
                    <path d="M9.05003535,6.64615385 C12.9162408,6.64615385 15.1927966,9.6103347 15.1927966,13.4301485 C15.1927966,17.9264156 12.5040972,20.4923077 8.85339813,20.4923077 C5.12424283,20.4923077 2.76923077,17.6079859 2.76923077,13.6687191 C2.76923077,9.55094371 5.320549,6.64615385 9.05003535,6.64615385 Z M22.0817862,10.3664458 C23.7498922,10.3664458 25.4769231,11.4606493 25.4769231,14.5244862 L25.4769231,20.2740039 L23.0629861,20.2740039 L23.0629861,14.8033219 C23.0629861,13.4104857 22.5528548,12.3565473 21.2379676,12.3565473 C20.276299,12.3565473 19.6089242,13.052462 19.3536931,13.7883064 C19.2752368,14.0074155 19.2560366,14.3057126 19.2560366,14.5842127 L19.2560366,20.2740039 L16.8215751,20.2740039 L16.8212691,13.2338708 L16.8212691,13.2338708 L16.8186924,12.777591 L16.8186924,12.777591 L16.8132117,12.3411326 C16.8120373,12.2699644 16.8107276,12.1995643 16.8092755,12.1299036 L16.7987981,11.7205801 C16.7864985,11.3196667 16.7685616,10.943291 16.7434499,10.5852194 L18.8627621,10.5852194 L18.9806121,12.0374465 L19.039537,12.0374465 C19.4516807,11.2818052 20.4918055,10.3664458 22.0817862,10.3664458 Z M8.99077935,8.61578727 C6.5960426,8.61545172 5.32021797,10.8639208 5.32021797,13.6291251 C5.32021797,16.3547353 6.67482991,18.5233454 8.99077935,18.5233454 C11.3262601,18.5233454 12.6411474,16.3349383 12.6411474,13.529469 C12.6411474,11.0031709 11.4050474,8.61578727 8.99077935,8.61578727 Z" id="形状" fill="#FFFFFF"></path>
                </g>
            </g>
        </g>
    </g>
</svg>