<?xml version="1.0" encoding="UTF-8"?>
<svg width="73px" height="53px" viewBox="0 0 73 53" version="1.1" xmlns="http://www.w3.org/2000/svg" xmlns:xlink="http://www.w3.org/1999/xlink">
    <title>编组 49</title>
    <g id="页面-1" stroke="none" stroke-width="1" fill="none" fill-rule="evenodd">
        <g id="首页弹框2" transform="translate(-1041.000000, -5086.000000)">
            <g id="编组-49" transform="translate(1041.000000, 5086.000000)">
                <path d="M25.92,1.42108547e-13 C38.9681711,1.42108547e-13 49.7620924,9.63755083 51.5727947,22.1836831 C45.4974774,24.5850827 41.2,30.5106766 41.2,37.44 C41.2,40.2707135 41.9171728,42.9339224 43.1797316,45.2578399 C38.5976801,49.3518753 32.5498297,51.84 25.92,51.84 C11.6030118,51.84 4.97379915e-13,40.2369882 4.97379915e-13,25.92 C4.97379915e-13,11.6030118 11.6030118,1.42108547e-13 25.92,1.42108547e-13 Z" id="形状结合" fill="#F7F7F7" fill-rule="nonzero"></path>
                <g id="编组-10" transform="translate(10.080000, 12.960000)" fill-rule="nonzero">
                    <path d="M21.2963421,20.9280852 C21.1237339,21.0963782 21.1237339,21.3682362 21.2877117,21.5365292 C21.3049725,21.5581052 21.3265485,21.575366 21.3524398,21.5883116 C22.3061002,22.4686135 22.9231745,23.655295 23.0957827,24.9412262 C23.3633255,25.9078322 24.3773987,26.4817545 25.3569503,26.2142117 C26.3278715,25.9596146 26.906109,24.9671174 26.6515119,24.0005114 C26.6515119,23.9961962 26.6471967,23.991881 26.6471967,23.9832506 C26.4443821,23.2582961 25.8143621,22.7275258 25.0635164,22.6541673 C23.8552589,22.4340919 22.7548815,21.8256479 21.9220469,20.92377 C21.7451235,20.7597922 21.4689503,20.7597922 21.2963421,20.9280852 L21.2963421,20.9280852 Z" id="路径" fill="#F96601"></path>
                    <path d="M29.6031124,17.5794859 C29.2924176,17.6614748 29.007614,17.8254526 28.7745929,18.0541585 L28.7702777,18.0541585 C28.4725286,18.3475924 28.2869747,18.7316457 28.2438227,19.1459054 C28.019432,20.3455325 27.4023576,21.4372794 26.4961645,22.2528533 C26.3235563,22.4168311 26.3192411,22.688689 26.4832189,22.8612972 L26.4875341,22.8656124 C26.6601423,23.0382206 26.9406307,23.0425358 27.1175541,22.8699276 C27.1391301,22.8483516 27.1563909,22.8310908 27.1693366,22.8051995 C28.0712145,21.8601696 29.2708415,21.2517256 30.5654031,21.0877478 C31.54927,20.8245203 32.1275075,19.8277079 31.86428,18.8611019 C31.5967372,17.8901807 30.5869792,17.3162584 29.6031124,17.5794859 L29.6031124,17.5794859 Z" id="路径" fill="#0083EF"></path>
                    <path d="M22.681523,15.7670996 L22.6513166,15.7973061 C21.7494387,16.7768577 20.5282356,17.4068777 19.2034675,17.5751707 C18.2282311,17.8297678 17.6413632,18.8136346 17.9002755,19.7802406 C17.9822644,20.0952506 18.1548726,20.3843693 18.3878937,20.6130752 C19.108533,21.3207689 20.2736384,21.3207689 20.9942777,20.60876 C21.2877117,20.3153261 21.4732655,19.9312728 21.5207328,19.5213283 C21.7494387,18.3217012 22.366513,17.2299543 23.2770213,16.4143804 C23.4539448,16.2547178 23.4712056,15.9828599 23.3158582,15.8059365 L23.311543,15.8016213 C23.1389348,15.6203827 22.8627616,15.607437 22.681523,15.7670996 L22.681523,15.7670996 Z" id="路径" fill="#FECB04"></path>
                    <path d="M24.3903443,12.4616524 C24.0839647,12.5436413 23.8034764,12.7076191 23.5834009,12.9276945 C22.8757073,13.6267578 22.8670768,14.765972 23.5661401,15.4736657 L23.5877161,15.4952417 C23.8854653,15.7886757 24.2738338,15.9699143 24.6880935,16.0173816 C25.896351,16.237457 27.0010435,16.8415858 27.8338782,17.7391485 C28.0064864,17.9117567 28.2826595,17.9117567 28.4552677,17.7434637 C28.627876,17.5794859 28.6321912,17.3076279 28.4682134,17.1350197 C28.4466373,17.1134437 28.4207461,17.0918677 28.3948549,17.0746069 C27.4411945,16.194305 26.8241201,15.0119387 26.6515119,13.7260075 C26.3882844,12.7594015 25.3742111,12.1941096 24.3903443,12.4616524 L24.3903443,12.4616524 Z" id="路径" fill="#2EBB05"></path>
                    <path d="M3.11638206,4.01248033 C2.27923223,4.84963017 1.58448417,5.81623616 1.05371391,6.87346147 C-0.573118495,10.1055503 -0.301260559,13.967659 1.76572279,16.9365203 C2.34827551,17.8081918 3.3105663,18.8956235 4.18655298,19.6680453 L3.78955409,22.7447867 L3.74640204,22.8742428 C3.73345642,22.9130797 3.73345642,22.9562317 3.72914122,22.9950686 L3.72051081,23.0943183 L3.72914122,23.193568 C3.78092368,23.7415991 4.26854188,24.1429132 4.81657296,24.0954459 C4.96760515,24.0825003 5.11000692,24.0350331 5.23946308,23.9616746 L5.2567239,23.9616746 L5.31713678,23.9185225 L6.26648195,23.4524803 L9.09294144,22.0500386 C10.4349703,22.4297767 11.8287816,22.6196457 13.2269081,22.6110153 C14.9529903,22.6153305 16.670442,22.3218965 18.2972744,21.7393438 C17.4860158,21.4804315 16.963876,20.6907489 17.0458649,19.8406535 C15.3629348,20.3757389 13.5850702,20.5483471 11.8330968,20.3541629 L11.5526085,20.3153261 C10.9182733,20.2333372 10.2925685,20.103881 9.67980936,19.9312728 C9.34322335,19.8277079 8.98506131,19.8665447 8.67436652,20.0348377 L8.59669283,20.0736746 L6.27079715,21.4243338 L6.17154743,21.4847467 C6.11544976,21.5149531 6.08955853,21.5278988 6.05935209,21.5278988 C5.97304799,21.5235836 5.90831991,21.4502251 5.91263511,21.363921 L5.99893922,21.0100741 L6.10250415,20.6260208 L6.27079715,19.9916857 L6.46498139,19.283992 C6.59443755,18.8869931 6.45203578,18.4554726 6.11113456,18.2138211 C5.20062623,17.5449642 4.40662845,16.7293904 3.76366286,15.7973061 C2.12820004,13.4584648 1.90812457,10.4119298 3.18974055,7.86595869 C3.61694588,7.02449365 4.17792257,6.2520719 4.8467794,5.58321507 C6.61169838,3.78808966 9.08862623,2.64456025 11.8330968,2.35112628 C12.782442,2.24756136 13.7404176,2.24756136 14.6897627,2.35112628 C17.4169725,2.66182107 19.88527,3.8182961 21.6415585,5.6047911 C22.3061002,6.28227834 22.8584464,7.05470009 23.2770213,7.90048033 C23.816422,8.97065126 24.0969104,10.1573327 24.1012256,11.3569598 C24.1012256,11.4821008 24.08828,11.6072417 24.0839647,11.7280675 C24.8089192,11.2879165 25.7410036,11.3957967 26.3451323,11.991295 L26.4271212,12.0905447 C26.569523,10.3126801 26.2199914,8.53050031 25.4216784,6.93387434 C24.8995386,5.87664904 24.2091057,4.91435825 23.3805863,4.07289321 C21.1151035,1.82898644 18.141927,0.435175118 14.9702511,0.115849924 C13.8310369,-0.0308670569 12.6875075,-0.0351822622 11.5569237,0.0856434869 C8.26010681,0.443805529 5.26535431,1.83761685 3.11638206,4.01248033 Z" id="路径" fill="#0082EF"></path>
                </g>
                <g id="编组-7备份" transform="translate(43.200000, 23.040000)">
                    <path d="M28.8,14.4 C28.8,6.4470996 22.3529004,-1.31113329e-12 14.4,-1.30967237e-12 C6.4470996,-1.30821145e-12 -9.73949402e-16,6.4470996 0,14.4 C9.73949402e-16,22.3529004 6.4470996,28.8 14.4,28.8 C22.3529004,28.8 28.8,22.3529004 28.8,14.4 Z" id="Fill-1" fill="#067BEF"></path>
                    <path d="M9.05003535,6.64615385 C12.9162408,6.64615385 15.1927966,9.6103347 15.1927966,13.4301485 C15.1927966,17.9264156 12.5040972,20.4923077 8.85339813,20.4923077 C5.12424283,20.4923077 2.76923077,17.6079859 2.76923077,13.6687191 C2.76923077,9.55094371 5.320549,6.64615385 9.05003535,6.64615385 Z M22.0817862,10.3664458 C23.7498922,10.3664458 25.4769231,11.4606493 25.4769231,14.5244862 L25.4769231,20.2740039 L23.0629861,20.2740039 L23.0629861,14.8033219 C23.0629861,13.4104857 22.5528548,12.3565473 21.2379676,12.3565473 C20.276299,12.3565473 19.6089242,13.052462 19.3536931,13.7883064 C19.2752368,14.0074155 19.2560366,14.3057126 19.2560366,14.5842127 L19.2560366,20.2740039 L16.8215751,20.2740039 L16.8212691,13.2338708 L16.8212691,13.2338708 L16.8186924,12.777591 L16.8186924,12.777591 L16.8132117,12.3411326 C16.8120373,12.2699644 16.8107276,12.1995643 16.8092755,12.1299036 L16.7987981,11.7205801 C16.7864985,11.3196667 16.7685616,10.943291 16.7434499,10.5852194 L18.8627621,10.5852194 L18.9806121,12.0374465 L19.039537,12.0374465 C19.4516807,11.2818052 20.4918055,10.3664458 22.0817862,10.3664458 Z M8.99077935,8.61578727 C6.5960426,8.61545172 5.32021797,10.8639208 5.32021797,13.6291251 C5.32021797,16.3547353 6.67482991,18.5233454 8.99077935,18.5233454 C11.3262601,18.5233454 12.6411474,16.3349383 12.6411474,13.529469 C12.6411474,11.0031709 11.4050474,8.61578727 8.99077935,8.61578727 Z" id="形状" fill="#FFFFFF"></path>
                </g>
            </g>
        </g>
    </g>
</svg>